<?xml version="1.0" encoding="utf-8"?>
<!-- Generator: Adobe Illustrator 23.1.1, SVG Export Plug-In . SVG Version: 6.00 Build 0)  -->
<svg version="1.1" id="Layer_1" xmlns="http://www.w3.org/2000/svg" xmlns:xlink="http://www.w3.org/1999/xlink" x="0px" y="0px"
	 viewBox="0 0 1920 875" style="enable-background:new 0 0 1920 875;" xml:space="preserve">
<style type="text/css">
	.st0{fill:url(#SVGID_1_);}
</style>
<title>header-bg-main</title>
<g>
	<g id="Layer_1-2">
		
			<linearGradient id="SVGID_1_" gradientUnits="userSpaceOnUse" x1="1568.0854" y1="905.6496" x2="-30.5744" y2="61.0696" gradientTransform="matrix(1 0 0 -1 0 876)">
			<stop  offset="0.52" style="stop-color:#101D2C;stop-opacity:0.9"/>
			<stop  offset="0.68" style="stop-color:#3B4F5E;stop-opacity:0.69"/>
			<stop  offset="1" style="stop-color:#88A6B7;stop-opacity:0.7"/>
		</linearGradient>
		<path class="st0" d="M246.8,854.8c18.4,0.5,37.6,1.5,56.8-2.2c15.3-2.9,28.7-8.4,42-13.5c135.7-52.3,308.3-80.6,456.4-74.8
			c13.8,0.5,28.1,1.3,42.7-1.2c13.7-2.4,25.8-7.4,37.6-12c133.5-52.6,304.2-81.9,452.2-77.6c18.5,0.5,37.7,1.5,57-2.2
			c15.3-2.9,28.8-8.4,42.2-13.6c135.8-52.3,308.3-80.5,456.4-74.7c9.8,0.4,19.8,0.9,30,0.2V0H0v875
			C79.7,860,163.6,852.4,246.8,854.8z"/>
	</g>
</g>
</svg>
