<svg xmlns="http://www.w3.org/2000/svg" xmlns:xlink="http://www.w3.org/1999/xlink" viewBox="0 0 1920 875"><defs><style>.cls-1{fill:url(#linear-gradient);}</style><linearGradient id="linear-gradient" x1="1568.09" y1="905.65" x2="-30.57" y2="61.07" gradientTransform="matrix(1, 0, 0, -1, 0, 876)" gradientUnits="userSpaceOnUse"><stop offset="0.52" stop-color="#101d2c" stop-opacity="0.9"/><stop offset="0.68" stop-color="#3b4f5e" stop-opacity="0.69"/><stop offset="1" stop-color="#88a6b7" stop-opacity="0.7"/></linearGradient></defs><title>header-bg</title><g id="Layer_2" data-name="Layer 2"><g id="Layer_1-2" data-name="Layer 1"><g id="Layer_1-2-2" data-name="Layer 1-2"><path class="cls-1" d="M246.79,854.75c18.42.53,37.55,1.46,56.82-2.22,15.27-2.92,28.7-8.39,42-13.51C481.34,786.74,653.9,758.47,802,764.27c13.79.54,28.08,1.32,42.7-1.21,13.74-2.39,25.8-7.36,37.58-12,133.46-52.61,304.2-81.91,452.19-77.59,18.49.54,37.68,1.5,57-2.2,15.34-2.93,28.82-8.42,42.15-13.56C1569.37,605.42,1741.94,577.16,1890,583c9.77.39,19.8.88,30,.21V0H0V875C79.7,860,163.62,852.4,246.79,854.75Z"/></g></g></g></svg>